<?xml version="1.0" encoding="UTF-8"?>
<!DOCTYPE svg PUBLIC "-//W3C//DTD SVG 1.1//EN" "http://www.w3.org/Graphics/SVG/1.1/DTD/svg11.dtd">
<!-- Creator: CorelDRAW 2018 (64-Bit Evaluation Version) -->
<svg xmlns="http://www.w3.org/2000/svg" xml:space="preserve" width="5.555in" height="5.521in" version="1.1" shape-rendering="geometricPrecision" text-rendering="geometricPrecision" image-rendering="optimizeQuality" fill-rule="evenodd" clip-rule="evenodd"
viewBox="0 0 555 552"
 xmlns:xlink="http://www.w3.org/1999/xlink">
 <g id="Layer_x0020_1">
  <metadata id="CorelCorpID_0Corel-Layer"/>
  <path fill="white" d="M321 275l0 -52c-1,-6 0,-12 2,-18 2,-6 5,-11 10,-15 4,-4 10,-7 15,-9 6,-2 12,-3 18,-2l35 0 0 -69c-21,-3 -41,-5 -62,-6 -14,-1 -29,1 -42,6 -13,5 -25,13 -35,24 -10,10 -17,23 -22,36 -5,14 -6,28 -5,42l0 61 -69 0 0 81 69 0 0 197c-52,-8 -101,-31 -141,-66 -40,-35 -68,-81 -83,-132 -15,-51 -14,-105 1,-156 15,-51 44,-96 84,-131 40,-35 89,-57 142,-65 52,-8 106,0 154,22 48,22 89,57 118,101 29,44 45,96 45,149 0,66 -23,131 -66,181 -43,51 -103,84 -168,95l0 -194 64 0 13 -81 -77 0z"/>
 </g>
</svg>
